<svg id="Twitter" xmlns="http://www.w3.org/2000/svg" width="29" height="29" viewBox="0 0 29 29">
  <g id="Vector_Smart_Object" data-name="Vector Smart Object">
    <path id="Path_10" data-name="Path 10" d="M94.975,48.285a14.5,14.5,0,1,0,14.5,14.5A14.5,14.5,0,0,0,94.975,48.285Zm7.561,11.889a9.506,9.506,0,0,1-14.624,8.441,6.718,6.718,0,0,0,4.948-1.384,3.344,3.344,0,0,1-3.122-2.322,3.343,3.343,0,0,0,1.509-.057,3.346,3.346,0,0,1-2.681-3.32,3.327,3.327,0,0,0,1.514.418,3.346,3.346,0,0,1-1.034-4.463,9.485,9.485,0,0,0,6.889,3.493,3.345,3.345,0,0,1,5.7-3.049,6.7,6.7,0,0,0,2.122-.812,3.347,3.347,0,0,1-1.469,1.849,6.678,6.678,0,0,0,1.919-.526A6.771,6.771,0,0,1,102.536,60.174Z" transform="translate(-80.475 -48.285)" fill="#fff"/>
  </g>
</svg>
