<svg xmlns="http://www.w3.org/2000/svg" width="29" height="29" viewBox="0 0 29 29">
  <g id="Facebook" transform="translate(0)">
    <g id="Vector_Smart_Object" data-name="Vector Smart Object">
      <g id="Vector_Smart_Object-2" data-name="Vector Smart Object" transform="translate(-33.169 -48.285)">
        <path id="Path_7" data-name="Path 7" d="M47.669,48.285a14.5,14.5,0,1,0,14.5,14.5A14.5,14.5,0,0,0,47.669,48.285Zm4.258,8.8H49.912c-.711,0-.859.291-.859,1.027v1.777h2.874l-.277,3.121h-2.6v9.32H45.331V63.045H43.4v-3.16h1.936V57.4c0-2.335,1.249-3.555,4.018-3.555h2.577Z" fill="#fff"/>
      </g>
      <path id="Color_Overlay" data-name="Color Overlay" d="M0,14.5A14.5,14.5,0,1,1,14.5,29,14.5,14.5,0,0,1,0,14.5Zm10.227.26h1.936v9.281h3.722v-9.32h2.6l.277-3.121H15.884V9.823c0-.736.148-1.027.859-1.027h2.014V5.558H16.181c-2.769,0-4.018,1.22-4.018,3.555V11.6H10.227Z"/>
    </g>
  </g>
</svg>
