<svg xmlns="http://www.w3.org/2000/svg" width="29.046" height="29" viewBox="0 0 29.046 29">
  <g id="Instagram" transform="translate(0.046)">
    <g id="Vector_Smart_Object" data-name="Vector Smart Object">
      <g id="Vector_Smart_Object-2" data-name="Vector Smart Object" transform="translate(-128.965 -48.285)">
        <g id="Group_3" data-name="Group 3">
          <path id="Path_9" data-name="Path 9" d="M150,58.145a2.777,2.777,0,0,0-1.593-1.591,4.659,4.659,0,0,0-1.559-.289c-.885-.04-1.151-.049-3.393-.049s-2.507.009-3.393.049a4.656,4.656,0,0,0-1.559.289,2.779,2.779,0,0,0-1.594,1.591,4.634,4.634,0,0,0-.289,1.557c-.04.884-.049,1.149-.049,3.388s.009,2.5.049,3.388a4.636,4.636,0,0,0,.289,1.557,2.779,2.779,0,0,0,1.594,1.591,4.656,4.656,0,0,0,1.559.289c.885.04,1.151.049,3.393.049s2.508-.009,3.393-.049a4.659,4.659,0,0,0,1.559-.289A2.777,2.777,0,0,0,150,68.033a4.627,4.627,0,0,0,.289-1.557c.04-.884.049-1.149.049-3.388s-.009-2.5-.049-3.388A4.625,4.625,0,0,0,150,58.145Zm-6.545,9.249a4.3,4.3,0,1,1,4.312-4.3A4.308,4.308,0,0,1,143.457,67.394Zm4.482-7.774a1.006,1.006,0,1,1,1.008-1.006A1.007,1.007,0,0,1,147.939,59.619Z" fill="#fff"/>
          <path id="Path_10" data-name="Path 10" d="M143.457,60.294a2.794,2.794,0,1,0,2.8,2.794A2.8,2.8,0,0,0,143.457,60.294Z" fill="#fff"/>
          <path id="Path_11" data-name="Path 11" d="M143.442,48.285a14.5,14.5,0,1,0,14.523,14.5A14.511,14.511,0,0,0,143.442,48.285Zm8.361,18.26a6.146,6.146,0,0,1-.391,2.035,4.289,4.289,0,0,1-2.455,2.452,6.174,6.174,0,0,1-2.038.39c-.9.041-1.182.051-3.462.051s-2.566-.01-3.462-.051a6.173,6.173,0,0,1-2.038-.39A4.291,4.291,0,0,1,135.5,68.58a6.147,6.147,0,0,1-.39-2.035c-.041-.894-.05-1.179-.05-3.456s.01-2.562.05-3.456a6.145,6.145,0,0,1,.39-2.035,4.291,4.291,0,0,1,2.456-2.452,6.173,6.173,0,0,1,2.038-.39c.9-.041,1.182-.051,3.462-.051s2.566.01,3.462.051a6.173,6.173,0,0,1,2.038.39,4.289,4.289,0,0,1,2.455,2.452,6.144,6.144,0,0,1,.391,2.035c.041.894.05,1.179.05,3.456S151.843,65.651,151.8,66.545Z" fill="#fff"/>
        </g>
      </g>
      <path id="Color_Overlay" data-name="Color Overlay" d="M-.046,14.5A14.523,14.523,0,1,1,14.477,29,14.511,14.511,0,0,1-.046,14.5ZM11.03,6.471a6.174,6.174,0,0,0-2.038.39A4.291,4.291,0,0,0,6.536,9.313a6.145,6.145,0,0,0-.39,2.035c-.041.894-.05,1.179-.05,3.456s.01,2.562.05,3.456a6.147,6.147,0,0,0,.39,2.035,4.29,4.29,0,0,0,2.456,2.452,6.173,6.173,0,0,0,2.038.39c.9.041,1.182.051,3.462.051s2.566-.01,3.462-.051a6.173,6.173,0,0,0,2.038-.39,4.289,4.289,0,0,0,2.455-2.452,6.146,6.146,0,0,0,.391-2.035c.041-.894.05-1.179.05-3.456s-.01-2.562-.05-3.456a6.144,6.144,0,0,0-.391-2.035,4.289,4.289,0,0,0-2.455-2.452,6.174,6.174,0,0,0-2.038-.39c-.9-.041-1.182-.051-3.462-.051S11.926,6.43,11.03,6.471ZM11.1,21.628a4.656,4.656,0,0,1-1.559-.289,2.779,2.779,0,0,1-1.594-1.591,4.636,4.636,0,0,1-.289-1.557c-.04-.884-.049-1.149-.049-3.388s.009-2.5.049-3.388A4.634,4.634,0,0,1,7.946,9.86,2.779,2.779,0,0,1,9.54,8.269,4.656,4.656,0,0,1,11.1,7.98c.886-.04,1.151-.049,3.393-.049S17,7.94,17.885,7.98a4.659,4.659,0,0,1,1.559.289A2.777,2.777,0,0,1,21.037,9.86a4.624,4.624,0,0,1,.289,1.557c.04.884.049,1.149.049,3.388s-.009,2.5-.049,3.388a4.626,4.626,0,0,1-.289,1.557,2.777,2.777,0,0,1-1.593,1.591,4.659,4.659,0,0,1-1.559.289c-.885.04-1.151.049-3.393.049S11.984,21.668,11.1,21.628ZM10.181,14.8a4.312,4.312,0,1,0,4.311-4.3A4.308,4.308,0,0,0,10.181,14.8Zm7.786-4.475a1.008,1.008,0,1,0,1.007-1.006A1.007,1.007,0,0,0,17.967,10.329ZM11.693,14.8a2.8,2.8,0,1,1,2.8,2.794A2.8,2.8,0,0,1,11.693,14.8Z"/>
    </g>
  </g>
</svg>
