<svg id="Twitter" xmlns="http://www.w3.org/2000/svg" width="29" height="29" viewBox="0 0 29 29">
  <g id="Vector_Smart_Object" data-name="Vector Smart Object">
    <g id="Vector_Smart_Object-2" data-name="Vector Smart Object" transform="translate(-80.475 -48.285)">
      <path id="Path_5" data-name="Path 5" d="M94.975,48.285a14.5,14.5,0,1,0,14.5,14.5A14.5,14.5,0,0,0,94.975,48.285Zm7.561,11.889a9.506,9.506,0,0,1-14.624,8.441,6.718,6.718,0,0,0,4.948-1.384,3.344,3.344,0,0,1-3.122-2.322,3.343,3.343,0,0,0,1.509-.057,3.346,3.346,0,0,1-2.681-3.32,3.327,3.327,0,0,0,1.514.418,3.346,3.346,0,0,1-1.034-4.463,9.485,9.485,0,0,0,6.889,3.493,3.345,3.345,0,0,1,5.7-3.049,6.7,6.7,0,0,0,2.122-.812,3.347,3.347,0,0,1-1.469,1.849,6.678,6.678,0,0,0,1.919-.526A6.771,6.771,0,0,1,102.536,60.174Z" fill="#fff"/>
    </g>
    <path id="Color_Overlay" data-name="Color Overlay" d="M0,14.5A14.5,14.5,0,1,1,14.5,29,14.5,14.5,0,0,1,0,14.5Zm12.56,7.333a9.454,9.454,0,0,0,9.5-9.943,6.77,6.77,0,0,0,1.668-1.73,6.678,6.678,0,0,1-1.919.526,3.347,3.347,0,0,0,1.469-1.849,6.7,6.7,0,0,1-2.122.812,3.345,3.345,0,0,0-5.7,3.049A9.485,9.485,0,0,1,8.571,9.2a3.346,3.346,0,0,0,1.034,4.463,3.327,3.327,0,0,1-1.514-.418,3.346,3.346,0,0,0,2.681,3.32,3.343,3.343,0,0,1-1.509.057,3.344,3.344,0,0,0,3.122,2.322,6.718,6.718,0,0,1-4.948,1.384A9.46,9.46,0,0,0,12.56,21.833Z"/>
  </g>
</svg>
