<svg id="WhatsApp" xmlns="http://www.w3.org/2000/svg" width="29" height="29" viewBox="0 0 29 29">
  <g id="Vector_Smart_Object" data-name="Vector Smart Object">
    <g id="Vector_Smart_Object-2" data-name="Vector Smart Object" transform="translate(-176.076 -93.756)">
      <g id="Group_1" data-name="Group 1">
        <path id="Path_1" data-name="Path 1" d="M190.768,100.551a6.911,6.911,0,0,0-6.888,6.2,6.374,6.374,0,0,0-.035.667,6.8,6.8,0,0,0,1.318,4.028L184.3,114l2.66-.848a6.929,6.929,0,0,0,10.732-5.732c0-.181-.008-.359-.023-.536A6.909,6.909,0,0,0,190.768,100.551Zm4.04,9.7a2.012,2.012,0,0,1-1.36.952c-.37.035-.37.3-2.425-.5a8.29,8.29,0,0,1-3.446-3.026,4.552,4.552,0,0,1-.721-1.388,2.543,2.543,0,0,1-.1-.682,2.243,2.243,0,0,1,.705-1.673.747.747,0,0,1,.54-.251c.135,0,.27.019.386.019s.289-.069.455.331.574,1.388.624,1.488a.362.362,0,0,1,.015.351,2.276,2.276,0,0,1-.127.239l-.073.1c-.1.115-.212.258-.3.351s-.2.208-.089.408A5.985,5.985,0,0,0,190,108.357a5.455,5.455,0,0,0,1.623.994c.2.1.32.085.439-.05s.505-.582.64-.783.27-.169.455-.1,1.176.551,1.38.652.335.15.385.231A1.655,1.655,0,0,1,194.808,110.253Z" fill="#fff"/>
        <path id="Path_2" data-name="Path 2" d="M190.576,93.756a14.5,14.5,0,1,0,14.5,14.5A14.5,14.5,0,0,0,190.576,93.756Zm.192,21.836a8.244,8.244,0,0,1-3.978-1.018l-4.56,1.45,1.484-4.383a8.111,8.111,0,0,1-1.179-4.221c0-.119,0-.239.008-.359a8.236,8.236,0,0,1,16.456.15c0,.07,0,.139,0,.208A8.2,8.2,0,0,1,190.768,115.592Z" fill="#fff"/>
      </g>
    </g>
    <path id="Color_Overlay" data-name="Color Overlay" d="M0,14.5A14.5,14.5,0,1,1,14.5,29,14.5,14.5,0,0,1,0,14.5Zm6.466-1.195c0,.12-.008.239-.008.359a8.111,8.111,0,0,0,1.179,4.221L6.154,22.268l4.56-1.45a8.244,8.244,0,0,0,12.212-7.155c0-.069,0-.139,0-.208a8.236,8.236,0,0,0-16.456-.15ZM10.884,19.4l-2.66.848.864-2.552a6.8,6.8,0,0,1-1.318-4.028A6.372,6.372,0,0,1,7.8,13a6.926,6.926,0,0,1,13.789.131c.015.177.023.355.023.536A6.929,6.929,0,0,1,10.884,19.4Zm.5-9.213a2.243,2.243,0,0,0-.705,1.673,2.543,2.543,0,0,0,.1.682,4.552,4.552,0,0,0,.721,1.388,8.289,8.289,0,0,0,3.446,3.026c2.054.8,2.054.532,2.425.5a2.012,2.012,0,0,0,1.36-.952,1.655,1.655,0,0,0,.119-.952c-.05-.081-.185-.131-.385-.231s-1.2-.586-1.38-.652-.32-.1-.455.1-.524.652-.64.783-.235.15-.439.05a5.455,5.455,0,0,1-1.623-.994,5.987,5.987,0,0,1-1.122-1.384c-.115-.2-.011-.308.089-.409s.2-.235.3-.351l.073-.1a2.287,2.287,0,0,0,.127-.239.361.361,0,0,0-.015-.351c-.05-.1-.455-1.087-.624-1.488s-.335-.331-.455-.331-.251-.019-.386-.019A.747.747,0,0,0,11.381,10.183Z"/>
  </g>
</svg>
